# xmcd
#
# Track frame offsets:
#	150
#	25461
#	42058
#	59804
#	78438
#	100415
#	118451
#	136639
#	154283
#	171760
#	191487
#	201540
#	220969
#	241416
#	259156
#	272318
#	286655
#	306380
#	322539
#
# Disc length: 4524 seconds
#
# Revision: 0
# Processed by: cddbd v1.4PL0 Copyright (c) Steve Scherf et al.
# Submitted via: audiograbber 1.80
#
DISCID=1711aa13
DTITLE=Various Artist - Country Weekly Charts 2003 Disk 1
DYEAR=1900
DGENRE=
TTITLE0=Toby Keith - I Love This Bar
TTITLE1=George Strait - Cowboys Like Us
TTITLE2=Rascal Flatts - I Melt
TTITLE3=Kenny Chesney - There Goes My Life
TTITLE4=Montgomery Gentry - Hell Yeah
TTITLE5=Pat Green - Wave On Wave
TTITLE6=Chris Cagle - Chicks Dig It
TTITLE7=Brooks and Dunn - You Can't Take The Honky Tonk Out Of The Girl
TTITLE8=Lonestar - Walking In Memphis
TTITLE9=Rodney Atkins - Honesty (Write Me A List)
TTITLE10=Tracy Byrd - Drinkin' Bone
TTITLE11=Keith Urban - Who Wouldn't Wanna Be Me
TTITLE12=Alan Jackson - Remember When
TTITLE13=Shania Twain - She's Not Just A Pretty Face
TTITLE14=Terri Clark - I Wanna Do It All
TTITLE15=Diamond Rio - Wrinkles
TTITLE16=Dierks Bentley - What Was I Thinkin'
TTITLE17=Jo Dee Messina - I Wish
TTITLE18=Alan Jackson and Jimmy Buffett - It's Five O'Clock Somewhere
EXTD=
EXTT0=
EXTT1=
EXTT2=
EXTT3=
EXTT4=
EXTT5=
EXTT6=
EXTT7=
EXTT8=
EXTT9=
EXTT10=
EXTT11=
EXTT12=
EXTT13=
EXTT14=
EXTT15=
EXTT16=
EXTT17=
EXTT18=
PLAYORDER=
